<?xml version="1.0" encoding="utf-8"?>
<!-- Generator: Adobe Illustrator 16.0.0, SVG Export Plug-In . SVG Version: 6.00 Build 0)  -->
<!DOCTYPE svg PUBLIC "-//W3C//DTD SVG 1.1//EN" "http://www.w3.org/Graphics/SVG/1.1/DTD/svg11.dtd">
<svg version="1.1" id="Layer_1" xmlns="http://www.w3.org/2000/svg" xmlns:xlink="http://www.w3.org/1999/xlink" x="0px" y="0px"
	 width="2834.65px" height="2834.65px" viewBox="0 0 2834.65 2834.65" enable-background="new 0 0 2834.65 2834.65"
	 xml:space="preserve">
<g>
	<polygon fill="#FFFFFF" points="1001.348,1177.16 1342.323,980.299 1342.323,1374.021 1001.348,1570.883 	"/>
	<path d="M1267.323,1110.203v220.518l-190.975,110.259v-220.518l1.715-0.99l168.772-97.44L1267.323,1110.203 M1417.323,850.395
		c0,0-490.975,283.464-490.975,283.463v566.929l490.975-283.464V850.395L1417.323,850.395z"/>
</g>
<g>
	<polygon fill="#6D6E71" points="1492.323,1374.022 1492.323,980.298 1833.297,1177.16 1833.297,1570.883 	"/>
	<path fill="#E6E7E8" d="M1567.323,1110.202l190.974,110.259v220.519l-190.974-110.259V1110.202 M1417.324,850.394
		c0,0-0.001,566.929-0.001,566.929l490.974,283.464v-566.929L1417.324,850.394L1417.324,850.394z"/>
</g>
<g>
	<polygon points="1076.351,1700.786 1417.326,1503.925 1758.299,1700.788 1417.326,1897.648 	"/>
	<path fill="#FFFFFF" d="M1417.325,1590.527l190.975,110.26l-190.975,110.259l-190.975-110.259L1417.325,1590.527
		 M1417.325,1417.322l-490.974,283.464l490.974,283.465l490.974-283.463L1417.325,1417.322L1417.325,1417.322z"/>
</g>
</svg>
