<?xml version="1.0" encoding="utf-8"?>
<!-- Generator: Adobe Illustrator 16.0.0, SVG Export Plug-In . SVG Version: 6.00 Build 0)  -->
<!DOCTYPE svg PUBLIC "-//W3C//DTD SVG 1.1//EN" "http://www.w3.org/Graphics/SVG/1.1/DTD/svg11.dtd">
<svg version="1.1" id="Layer_1" xmlns="http://www.w3.org/2000/svg" xmlns:xlink="http://www.w3.org/1999/xlink" x="0px" y="0px"
	 width="981.951px" height="1133.857px" viewBox="0 0 981.951 1133.857" enable-background="new 0 0 981.951 1133.857"
	 xml:space="preserve">
<g>
	<polygon fill="#FFFFFF" points="75,326.766 415.975,129.905 415.975,523.627 75,720.489 	"/>
	<path d="M340.975,259.809v220.518L150,590.585V370.068l1.715-0.99l168.772-97.44L340.975,259.809 M490.975,0.001
		C490.975,0.001,0,283.465,0,283.464v566.929l490.975-283.464V0.001L490.975,0.001z"/>
</g>
<g>
	<polygon fill="#6D6E71" points="565.975,523.628 565.975,129.904 906.949,326.766 906.949,720.489 	"/>
	<path fill="#E6E7E8" d="M640.975,259.808l190.974,110.259v220.519L640.975,480.327V259.808 M490.976,0
		c0,0-0.001,566.929-0.001,566.929l490.974,283.464V283.464L490.976,0L490.976,0z"/>
</g>
<g>
	<polygon points="150.003,850.392 490.978,653.531 831.951,850.394 490.978,1047.254 	"/>
	<path fill="#FFFFFF" d="M490.977,740.133l190.975,110.26L490.977,960.652L300.002,850.393L490.977,740.133 M490.977,566.928
		L0.003,850.392l490.974,283.465l490.974-283.463L490.977,566.928L490.977,566.928z"/>
</g>
</svg>
